<?xml version="1.0" encoding="utf-8"?>
<!-- Generator: Adobe Illustrator 27.0.0, SVG Export Plug-In . SVG Version: 6.00 Build 0)  -->
<svg version="1.1" id="Layer_1" xmlns="http://www.w3.org/2000/svg" xmlns:xlink="http://www.w3.org/1999/xlink" x="0px" y="0px"
	 viewBox="0 0 300 300" style="enable-background:new 0 0 300 300;" xml:space="preserve">
<style type="text/css">
	.st0{fill:#2E3192;}
</style>
<g>
	<g>
  	<circle cx="150" cy="150" r="150" fill="white" />
    <path class="st0" d="M117.78,224.69c-6.99-1.68-14.11-3.31-21.18-5.13c-10.21-2.62-20.51-5.02-30.5-8.34c-2.37-0.79-4.68-4.64-5.21-7.44c-0.86-4.52,0.06-9.35-0.31-14.01c-0.52-6.52,4.58-9.09,8.5-11.82c11.21-7.83,22.84-15.06,34.38-22.4c9.91-6.3,16.7-13.75,16.06-26.98c-0.52-10.68,1.27-21.51,2.41-32.23c0.75-6.99,2.19-7.57,11.96-5.28c1.49-8.26,3.12-16.43,4.43-24.65c1.82-11.43,3.4-22.89,5.12-34.34c0.15-1.02,0.31-2.27,0.95-2.96c2.3-2.45,4.8-4.71,7.23-7.04c1.85,2.81,4.4,5.38,5.45,8.46c5.31,15.58,4.91,31.99,6.54,48.11c0.41,4.1,2.5,8.04,3.79,11.96c10.02-1.78,11.27-0.73,11.34,9.2c0.04,4.68-0.33,9.4,0.07,14.05c0.7,8.22,1.45,16.47,2.92,24.57c1.42,7.83,7.98,11.99,13.91,16.05c13.56,9.27,27.43,18.09,41.11,27.19c0.92,0.61,1.82,1.98,1.89,3.05c0.47,7.14,1.11,14.32,0.76,21.43c-0.09,1.91-3.14,4.64-5.34,5.3c-7.46,2.26-15.18,3.6-22.73,5.59c-9.56,2.51-19.05,5.31-28.41,7.94c-0.04,8.55,3.99,13.3,10.45,16.91c5.88,3.28,11.36,7.28,16.93,11.09c4.12,2.81,3.94,12.23-0.57,14.19c-4.96,2.16-10.32,3.45-15.57,4.87c-6.9,1.87-13.87,3.48-20.8,5.24c-3.69,0.94-5.82-0.39-6.53-4.16c-1.65-8.7-3.36-17.39-5.28-27.28c-7.09,8.74-14.82,9.75-22.6,0.29c-1.76,9.83-3.36,18.28-4.75,26.78c-0.67,4.09-1.97,5.85-6.7,4.63c-10.36-2.66-20.88-4.67-31.35-6.92c-6.71-1.44-10.23-10.32-5.42-15.28c4.9-5.06,10.46-9.76,16.48-13.38C113.6,238.11,117.53,233.48,117.78,224.69z"/>
	</g>
</g>
</svg>