<?xml version="1.0" standalone="no"?>
<!DOCTYPE svg PUBLIC "-//W3C//DTD SVG 20010904//EN"
 "http://www.w3.org/TR/2001/REC-SVG-20010904/DTD/svg10.dtd">
<svg version="1.0" xmlns="http://www.w3.org/2000/svg"
 width="473.000000pt" height="563.000000pt" viewBox="0 0 473.000000 563.000000"
 preserveAspectRatio="xMidYMid meet">

<g transform="translate(0.000000,563.000000) scale(0.100000,-0.100000)"
fill="#000000" stroke="none">
<path d="M2408 5421 c-75 -3 -139 -9 -142 -12 -4 -3 24 -20 61 -36 38 -17 142
-65 233 -106 314 -142 409 -198 575 -347 178 -159 239 -249 269 -393 33 -158
-17 -308 -148 -446 -94 -98 -176 -149 -616 -381 -96 -51 -179 -96 -184 -100
-5 -5 49 11 120 35 132 45 303 79 365 73 32 -3 34 -5 37 -43 6 -69 -61 -251
-129 -350 -31 -47 -54 -85 -49 -85 15 0 106 84 265 245 249 251 479 431 607
474 73 25 170 27 221 6 59 -25 121 -107 183 -244 78 -174 116 -296 158 -511
20 -102 45 -225 56 -275 10 -49 27 -130 36 -180 l18 -89 26 59 c61 136 126
373 151 545 16 109 16 387 0 465 -35 169 -96 310 -225 512 -87 139 -90 153
-47 251 60 136 173 533 157 549 -7 7 -195 -28 -260 -49 -33 -11 -113 -44 -176
-74 -71 -34 -122 -53 -135 -50 -12 3 -36 27 -55 53 -97 137 -288 297 -456 381
-71 36 -228 84 -347 107 -94 18 -361 26 -569 16z m1666 -873 c-109 -192 -228
-319 -426 -450 -170 -113 -258 -169 -258 -164 0 2 42 36 94 75 242 182 356
290 553 524 37 42 67 77 69 77 2 0 -13 -28 -32 -62z"/>
</g>
</svg>
