<?xml version="1.0" encoding="utf-8"?>
<!-- Generator: Adobe Illustrator 27.0.0, SVG Export Plug-In . SVG Version: 6.00 Build 0)  -->
<svg version="1.1" id="Layer_1" xmlns="http://www.w3.org/2000/svg" xmlns:xlink="http://www.w3.org/1999/xlink" x="0px" y="0px"
	 viewBox="0 0 400 200" style="enable-background:new 0 0 400 200;" xml:space="preserve">
<style type="text/css">
	.st0{fill:#3A8BCA;}
</style>
<path class="st0" d="M6.24,111.07l26.53-1.05l2.1,4.99l84.91,4.69c0,0-0.13,3.05,4.51,3.59c4.65,0.53,7.57,0.8,7.57,0.8
	s3.19,0.53,4.12,2.39s8.76,14.47,11.69,15c0,0,2.92,2.92,6.24,3.45c0,0,4.98,1.15,8.57,0c3.59-1.15,4.46-1.48,4.46-1.48
	s1.19,0.02,1.66,1.04c0.47,1.02,4.93,5.39,9.67,5.39s7.72-2.33,7.72-2.33s5.49,0.28,6.98,1.86c1.49,1.58,0.42,6.42,7.04,6.51V54.26
	c0,0-17.54-0.95-19.56,19.93l-10.66,9.58l-15.81,8.03l-3.35-0.36L133.1,45.85h-2.89l-0.96-1.73c0,0-1.14-0.67,0.15,3.07
	c1.29,3.74,15.08,45.61,15.08,45.61s-5.39,2.69-5.39,4.35l-0.04,3.16c0,0-16.67,2.62-31.99,2.46l-95.32,3.77
	c0,0-2.67-0.06-3.77,1.22L6.24,111.07z"/>
<path class="st0" d="M393.65,111.07l-26.53-1.05l-2.1,4.99l-84.91,4.69c0,0,0.13,3.05-4.51,3.59s-7.57,0.8-7.57,0.8
	s-3.19,0.53-4.12,2.39s-8.76,14.47-11.69,15c0,0-2.92,2.92-6.24,3.45c0,0-4.98,1.15-8.57,0c-3.59-1.15-4.46-1.48-4.46-1.48
	s-1.19,0.02-1.66,1.04c-0.47,1.02-4.93,5.39-9.67,5.39c-4.74,0-7.72-2.33-7.72-2.33s-5.49,0.28-6.98,1.86
	c-1.49,1.58-0.42,6.42-7.04,6.51V54.26c0,0,17.54-0.95,19.56,19.93l10.66,9.58l15.81,8.03l3.35-0.36l17.51-45.59h2.89l0.96-1.73
	c0,0,1.14-0.67-0.15,3.07c-1.29,3.74-15.08,45.61-15.08,45.61s5.39,2.69,5.39,4.35l0.04,3.16c0,0,16.67,2.62,31.99,2.46l95.32,3.77
	c0,0,2.67-0.06,3.77,1.22L393.65,111.07z"/>
</svg>
