<?xml version="1.0" encoding="utf-8"?>
<!-- Generator: Adobe Illustrator 27.0.0, SVG Export Plug-In . SVG Version: 6.00 Build 0)  -->
<svg version="1.1" id="Layer_1" xmlns="http://www.w3.org/2000/svg" xmlns:xlink="http://www.w3.org/1999/xlink" x="0px" y="0px"
	 viewBox="0 0 300 200" style="enable-background:new 0 0 300 200;" xml:space="preserve">
<style type="text/css">
	.st0{fill:#2E3192;}
	.st1{fill:none;}
</style>
<g>
	<g>
		<path class="st0" d="M25.88,69.28h8.62v61.45h-8.62V69.28z M29.64,96.56h20.95c1.63,0,3.08-0.39,4.35-1.18
			c1.27-0.79,2.24-1.91,2.94-3.36c0.69-1.45,1.03-3.12,1.03-5s-0.35-3.55-1.03-5c-0.69-1.45-1.66-2.57-2.91-3.36
			c-1.25-0.79-2.71-1.18-4.37-1.18H29.64v-8.19h20.61c3.55,0,6.67,0.73,9.35,2.2c2.69,1.46,4.77,3.54,6.25,6.23
			c1.48,2.69,2.22,5.79,2.22,9.31c0,3.52-0.75,6.62-2.24,9.31c-1.49,2.69-3.58,4.77-6.27,6.23c-2.69,1.46-5.79,2.2-9.31,2.2H29.64
			V96.56z M46.36,102.85l8.57-1.94l15.71,29.81H60.42L46.36,102.85z"/>
		<path class="st1" d="M122.06,69.32h7.35l22.64,61.4h-9.29l-17.02-49.54l-17.02,49.54h-9.29L122.06,69.32z M109.85,109.06h32.31
			v8.19h-32.31V109.06z"/>
		<path class="st0" d="M193.02,130.72h-8.62v-61.4h8.62V130.72z"/>
		<path class="st0" d="M231.3,69.32h8.62v61.4h-8.62V69.32z M237.13,122.53h13.89c4.53,0,8.04-1.18,10.54-3.53
			c2.49-2.35,3.74-5.67,3.74-9.95V90.98c0-4.28-1.25-7.59-3.74-9.95c-2.49-2.35-6-3.53-10.54-3.53h-13.89v-8.19h13.64
			c4.93,0,9.14,0.86,12.63,2.58c3.49,1.72,6.15,4.22,7.98,7.52c1.83,3.29,2.75,7.26,2.75,11.91v17.4c0,4.65-0.92,8.62-2.75,11.91
			s-4.5,5.8-8,7.52c-3.5,1.72-7.72,2.58-12.65,2.58h-13.6V122.53z"/>
	</g>
</g>
</svg>
